<?xml version="1.0" encoding="UTF-8" standalone="no"?>
<!-- Created with Inkscape (http://www.inkscape.org/) -->

<svg
   width="48"
   height="48"
   viewBox="0 0 12.7 12.7"
   version="1.1"
   id="svg5"
   xmlns="http://www.w3.org/2000/svg"
   xmlns:svg="http://www.w3.org/2000/svg">
  <defs
     id="defs2" />
  <g
     id="layer1">
    <rect
       style="fill:#000000;fill-opacity:1;stroke:none;stroke-width:0;stroke-linecap:round;stroke-dasharray:none;stroke-opacity:1"
       id="rect7161"
       width="12.7"
       height="12.7"
       x="0"
       y="0"
       ry="1.8978056" />
    <path
       d="M 11.143456,8.480425 V 4.219575 A 1.0652125,1.0652125 0 0 0 10.61085,3.2981662 L 6.8826058,1.167741 a 1.0652125,1.0652125 0 0 0 -1.0652111,0 L 2.0891495,3.2981662 A 1.0652125,1.0652125 0 0 0 1.5565439,4.219575 v 4.26085 a 1.0652125,1.0652125 0 0 0 0.5326056,0.9214089 l 3.7282452,2.1304251 a 1.0652125,1.0652125 0 0 0 1.0652111,0 L 10.61085,9.4018339 A 1.0652125,1.0652125 0 0 0 11.143456,8.480425 Z"
       id="path7100"
       style="fill:#000000;fill-opacity:1;stroke:#ffffff;stroke-width:0.5;stroke-dasharray:none;stroke-opacity:1" />
    <g
       id="g3447"
       transform="translate(-0.0769418,0.7384165)"
       style="stroke:#ffffff;stroke-opacity:1">
      <path
         d="M 6.8238168,8.2574168 H 5.1040251 A 0.26458333,0.26458333 0 0 1 4.8394418,7.9928335 v -1.5875 A 0.26458333,0.26458333 0 0 1 5.1040251,6.1407502 h 2.6458334 a 0.26458333,0.26458333 0 0 1 0.2645833,0.2645833 v 0.1322917"
         id="path344"
         style="fill:none;stroke:#ffffff;stroke-width:0.5;stroke-linecap:round;stroke-dasharray:none;stroke-opacity:1" />
      <path
         d="M 7.4852751,7.4636668 8.0144418,7.9928335 9.0727751,6.9345002"
         id="path346"
         style="fill:none;stroke:#ffffff;stroke-width:0.5;stroke-linecap:round;stroke-dasharray:none;stroke-opacity:1" />
      <path
         d="M 4.8394418,7.1990835 H 4.3102751 A 0.52916667,0.52916667 0 0 1 3.7811085,6.6699168 V 5.3470002 A 0.52916667,0.52916667 0 0 1 4.3102751,4.8178335 h 4.2333334 a 0.52916667,0.52916667 0 0 1 0.5291666,0.5291667 v 0.5291666"
         id="path348"
         style="fill:none;stroke:#ffffff;stroke-width:0.5;stroke-linecap:round;stroke-dasharray:none;stroke-opacity:1" />
      <path
         d="m 4.8394418,4.8178335 v -1.5875 A 0.26458333,0.26458333 0 0 1 5.1040251,2.9657502 h 2.6458334 a 0.26458333,0.26458333 0 0 1 0.2645833,0.2645833 v 1.5875"
         id="path350"
         style="fill:none;stroke:#ffffff;stroke-width:0.5;stroke-linecap:round;stroke-dasharray:none;stroke-opacity:1" />
    </g>
  </g>
</svg>
